<?xml version="1.0" encoding="utf-8"?>
<!-- Generator: Adobe Illustrator 27.2.0, SVG Export Plug-In . SVG Version: 6.00 Build 0)  -->
<svg version="1.1" id="Layer_2_00000144298301481923731330000011175015890731379895_"
	 xmlns="http://www.w3.org/2000/svg" xmlns:xlink="http://www.w3.org/1999/xlink" x="0px" y="0px" viewBox="0 0 1120.1 371.8"
	 style="enable-background:new 0 0 1120.1 371.8;" xml:space="preserve">
<style type="text/css">
	.st0{fill:#1E96BE;}
	.st1{fill:#F0A000;}
	.st2{fill:#FFFFFF;}
</style>
<g id="Layer_1-2">
	<g>
		<circle class="st0" cx="29.7" cy="342.1" r="29.7"/>
		<circle class="st1" cx="1090.4" cy="29.7" r="29.7"/>
		<g>
			<rect x="242.2" y="174.9" class="st2" width="69.4" height="22.1"/>
			<path class="st2" d="M321.4,125.3h-98.9c-1.6,0-3,0.3-4.4,0.8s-2.5,1.3-3.5,2.4c-1,1-1.8,2.2-2.3,3.6c-0.6,1.4-0.8,2.8-0.8,4.3
				v79.2c0,5.7,1,10.5,3.1,14.4c2.1,3.9,4.6,7.1,7.7,9.6s6.4,4.2,10,5.3c3.6,1.1,6.9,1.6,10,1.6h79.2v-22h-79.1
				c-2.9,0-5.1-0.8-6.7-2.3s-2.3-3.7-2.3-6.6v-68.3h88L321.4,125.3L321.4,125.3z"/>
			<polygon class="st2" points="434.9,125.3 397.9,168.6 360.9,125.3 331.2,125.3 383,186.1 331.4,246.5 361.2,246.5 397.9,203.6 
				434.7,246.5 464.6,246.5 412.8,186.1 464.9,125.3 			"/>
			<polygon class="st2" points="539.8,246.5 539.8,147.3 588.2,147.3 588.2,125.3 469.4,125.3 469.4,147.3 517.8,147.3 517.8,246.5 
							"/>
			<path class="st2" d="M683.2,149.6c1.5-1.5,3.7-2.3,6.6-2.3h89.3v-22h-89.3c-3.8,0-7.2,0.5-10.1,1.4s-5.6,2.2-7.9,3.8
				s-4.2,3.4-5.9,5.5s-3,4.3-4,6.6c-1,2.3-1.8,4.6-2.2,6.9s-0.7,4.5-0.7,6.6v59.5c0,3.8,0.5,7.2,1.4,10.2s2.2,5.7,3.8,7.9
				c1.6,2.3,3.5,4.2,5.5,5.8c2.1,1.6,4.3,2.9,6.5,3.9c2.3,1,4.6,1.8,6.9,2.2c2.3,0.5,4.5,0.7,6.5,0.7h79.2c1.6,0,3-0.3,4.4-0.8
				c1.3-0.6,2.5-1.3,3.5-2.3c1-1,1.8-2.1,2.3-3.5c0.6-1.4,0.8-2.8,0.8-4.4v-49.5c0-1.5-0.3-2.9-0.8-4.3c-0.6-1.3-1.3-2.5-2.3-3.5
				s-2.2-1.8-3.5-2.4c-1.3-0.6-2.8-0.9-4.4-0.9h-69.3V197h58.5v27.5h-68.3c-2.8,0-5-0.8-6.5-2.3s-2.3-3.7-2.3-6.6v-59.3
				C681,153.4,681.7,151.1,683.2,149.6L683.2,149.6z"/>
			<path class="st2" d="M912.5,125.3h-98.9c-1.6,0-3,0.3-4.4,0.8c-1.3,0.6-2.5,1.3-3.5,2.4s-1.8,2.2-2.3,3.6s-0.8,2.8-0.8,4.3v79.2
				c0,5.7,1,10.5,3.1,14.4c2.1,3.9,4.6,7.1,7.7,9.6s6.4,4.2,10,5.3c3.6,1.1,6.9,1.6,10,1.6h79.2v-22h-79.1c-2.9,0-5.2-0.8-6.7-2.3
				c-1.5-1.5-2.3-3.7-2.3-6.6v-68.3h88L912.5,125.3L912.5,125.3z"/>
			<rect x="833.2" y="174.9" class="st2" width="69.3" height="22.1"/>
			<path class="st2" d="M1054.7,99V77H18.7v22l0,0v204.6c3.4-1.4,7.1-2.1,11-2.1s7.6,0.8,11,2.1V99h992.1"/>
			<path class="st2" d="M1032.8,125.3L1032.8,125.3v85.3L952.5,127c-1.6-1.6-3.5-2.7-5.7-3.1c-2.2-0.4-4.3-0.2-6.4,0.6
				c-2,0.9-3.6,2.3-4.9,4.1c-1.3,1.8-1.9,3.9-1.9,6.1v111.8h22v-85.3l80.2,83.8c1.1,1.1,2.3,1.9,3.7,2.4s2.8,0.8,4.1,0.8
				c1.5,0,3-0.3,4.3-0.8c1.3-0.6,2.5-1.3,3.5-2.3c1-1,1.8-2.1,2.4-3.5c0.6-1.4,0.9-2.8,0.9-4.4v-83.8l0,0v-28.2"/>
			<path class="st2" d="M65.4,272.9L65.4,272.9v22h1014h22V68.2c-3.4,1.4-7.1,2.1-11,2.1s-7.6-0.8-11-2.1v204.6H87.3"/>
			<path class="st2" d="M87.3,246.5v-24.2l0,0v-61.1l80.2,83.8c1.1,1.1,2.3,1.9,3.7,2.4s2.8,0.8,4.1,0.8c1.5,0,3-0.3,4.3-0.8
				c1.4-0.6,2.5-1.3,3.5-2.3c1-1,1.8-2.1,2.4-3.5c0.6-1.4,0.9-2.8,0.9-4.4V125.4h-22v85.3L84.2,127c-1.6-1.6-3.5-2.7-5.7-3.1
				s-4.3-0.2-6.4,0.6c-2,0.9-3.6,2.3-4.9,4.1c-1.3,1.8-1.9,3.9-1.9,6.1v111.8l0,0"/>
		</g>
	</g>
</g>
</svg>
